<svg width="644" height="673" viewBox="0 0 644 673" fill="none" xmlns="http://www.w3.org/2000/svg">
<path d="M204 673C316.666 673 408 666.732 408 659C408 651.268 316.666 645 204 645C91.3339 645 0 651.268 0 659C0 666.732 91.3339 673 204 673Z" fill="#E6E6E6"/>
<path d="M285.33 393.593C287.331 382.349 297.696 375.742 308.03 373.097C319.824 370.079 332.397 370.45 344.4 371.812C368.573 374.553 392.307 381.962 416.837 380.813C438.165 379.739 458.837 373.087 476.789 361.521C494.847 349.913 509.398 333.602 518.878 314.341C528.425 294.957 532.659 273.388 531.148 251.834C530.947 249.154 530.642 246.486 530.266 243.825C529.996 241.922 527.106 242.731 527.373 244.623C530.293 266.053 527.276 287.873 518.651 307.707C510.184 327.339 496.426 344.23 478.914 356.495C461.454 368.689 441.05 375.988 419.817 377.635C395.601 379.403 372.07 372.442 348.272 369.289C336.253 367.697 323.994 367.104 311.994 369.191C301.364 371.041 290.459 375.794 285.002 385.642C283.759 387.869 282.892 390.286 282.436 392.796C282.1 394.683 284.991 395.494 285.329 393.593H285.33Z" fill="#3F3D56"/>
<path d="M519 250C588.036 250 644 194.036 644 125C644 55.9644 588.036 0 519 0C449.964 0 394 55.9644 394 125C394 194.036 449.964 250 519 250Z" fill="#6C63FF"/>
<path d="M472 132C489.673 132 504 117.673 504 100C504 82.3269 489.673 68 472 68C454.327 68 440 82.3269 440 100C440 117.673 454.327 132 472 132Z" fill="white"/>
<path d="M482.026 164C482.288 168.857 484.4 173.43 487.929 176.778C491.458 180.125 496.136 181.994 501 182H553C557.864 181.994 562.542 180.125 566.071 176.778C569.6 173.43 571.712 168.857 571.974 164H482.026Z" fill="white"/>
<path d="M460 127.5C469.389 127.5 477 119.889 477 110.5C477 101.111 469.389 93.5 460 93.5C450.611 93.5 443 101.111 443 110.5C443 119.889 450.611 127.5 460 127.5Z" fill="#3F3D56"/>
<path d="M466 107.5C468.209 107.5 470 105.709 470 103.5C470 101.291 468.209 99.5 466 99.5C463.791 99.5 462 101.291 462 103.5C462 105.709 463.791 107.5 466 107.5Z" fill="white"/>
<path d="M576 132.5C593.673 132.5 608 118.173 608 100.5C608 82.8269 593.673 68.5 576 68.5C558.327 68.5 544 82.8269 544 100.5C544 118.173 558.327 132.5 576 132.5Z" fill="white"/>
<path d="M564 127.5C573.389 127.5 581 119.889 581 110.5C581 101.111 573.389 93.5 564 93.5C554.611 93.5 547 101.111 547 110.5C547 119.889 554.611 127.5 564 127.5Z" fill="#3F3D56"/>
<path d="M570 107.5C572.209 107.5 574 105.709 574 103.5C574 101.291 572.209 99.5 570 99.5C567.791 99.5 566 101.291 566 103.5C566 105.709 567.791 107.5 570 107.5Z" fill="white"/>
<path d="M521 148C527.627 148 533 142.627 533 136C533 129.373 527.627 124 521 124C514.373 124 509 129.373 509 136C509 142.627 514.373 148 521 148Z" fill="#3F3D56"/>
<path d="M517 243H539V260H517V243Z" fill="#6C63FF"/>
<path d="M223.262 577.12C223.262 577.12 237.378 618.46 231.328 633.585L249.478 649.718L260.569 635.601C260.569 635.601 248.469 623.501 249.478 614.427C250.487 605.353 251.494 573.086 251.494 573.086L223.262 577.12Z" fill="#FFB9B9"/>
<path d="M290.813 657.779C289.989 658.26 289.203 658.717 288.48 659.136H225.895C225.315 658.804 224.849 658.304 224.559 657.701C224.269 657.099 224.169 656.423 224.272 655.762C224.564 654.266 225.312 651.222 226.238 647.722C228.432 639.441 231.653 628.598 232.35 629.752C232.352 629.752 232.353 629.752 232.355 629.753C232.357 629.753 232.358 629.754 232.36 629.756C232.361 629.757 232.362 629.758 232.362 629.76C232.363 629.762 232.363 629.763 232.363 629.765C233.34 631.565 235.356 639.631 240.403 638.629C245.451 637.615 253.516 635.599 253.516 635.599C253.516 635.599 250.637 629.131 253.389 626.519C253.981 625.968 254.731 625.617 255.533 625.516C261.582 624.515 261.582 633.582 261.582 633.582L283.762 645.68C285.674 646.209 287.54 646.892 289.342 647.722C293.844 649.827 298.295 653.429 290.813 657.779V657.779Z" fill="#2F2E41"/>
<path d="M182.93 561.994L156.713 593.252L149.655 609.385L158.73 616.443L166.796 613.418C166.796 613.418 173.854 595.268 180.913 592.244C187.972 589.22 205.113 569.053 205.113 569.053L182.93 561.994Z" fill="#FFB9B9"/>
<path d="M237.882 538.007L224.512 562.791L214.933 580.537C211.868 582.362 207.784 582.332 203.388 581.253C201.339 580.729 199.331 580.059 197.378 579.247C185.379 574.337 173.209 564.586 173.209 564.586L196.239 535.809L203.761 526.421L205.546 524.183L214.146 527.863L229.322 534.346L237.882 538.007Z" fill="#2F2E41"/>
<path d="M178.211 323.992L167.531 367.802L178.525 424.006C178.525 424.006 178.795 446.982 188.87 445.238C198.945 443.494 188.386 420.323 188.386 420.323L183.459 374.237L199.214 328.707C200.49 325.02 198.878 321.06 195.182 318.803C188.943 314.993 180.078 317.703 178.212 323.992H178.211ZM215.7 286.221L206.625 314.454L189.483 305.379C189.483 305.379 196.541 285.213 196.541 282.188C196.541 279.163 215.699 286.221 215.699 286.221H215.7Z" fill="#FFB9B9"/>
<path d="M208.641 297.313C220.336 297.313 229.816 287.833 229.816 276.138C229.816 264.443 220.336 254.963 208.641 254.963C196.946 254.963 187.466 264.443 187.466 276.138C187.466 287.833 196.946 297.313 208.641 297.313Z" fill="#FFB9B9"/>
<path d="M214.187 321.008L210.154 316.975L209.145 311.933C209.145 311.933 196.037 294.792 184.945 300.842C181.48 302.732 178.9 307.085 176.991 312.175C172.129 325.481 172.582 340.148 178.257 353.128L196.037 394.615L236.37 390.581L229.312 364.365C229.312 364.365 236.37 348.232 223.262 337.141L214.187 321.008Z" fill="#6C63FF"/>
<path opacity="0.3" d="M237.882 538.007L224.512 562.791L214.933 580.537C211.868 582.362 207.784 582.332 203.388 581.253C202.622 576.151 207.199 549.189 203.6 527.208L203.76 526.421L205.546 524.183L214.146 527.863L229.322 534.346L237.882 538.007Z" fill="black"/>
<path d="M237.882 388.06C237.882 388.06 211.666 371.928 193.516 392.094L194.525 398.144C194.525 398.144 179.4 415.285 188.475 451.584C197.55 487.883 211.666 582.664 211.666 582.664C211.666 582.664 244.94 584.681 260.066 573.59C260.066 573.59 255.024 448.56 237.882 436.46V388.06Z" fill="#2F2E41"/>
<path d="M183.216 331.901L211.666 366.886L263.09 392.094C263.09 392.094 281.56 405.764 286.258 396.684C290.956 387.604 266.115 382.011 266.115 382.011L226.42 358.086L199.666 318.018C197.499 314.773 193.37 313.664 189.338 315.245C182.532 317.912 179.334 326.614 183.216 331.901Z" fill="#FFB9B9"/>
<path d="M164.367 611.203C164.367 611.203 170.547 603.43 174.24 608.328C177.933 613.226 169.886 617.422 169.886 617.422L169.417 642.686C169.417 642.686 173.808 662.004 161.954 654.54C150.1 647.076 149.634 646.183 147.302 641.713C144.97 637.243 140.152 619.286 135.994 613.494C131.836 607.702 128.027 596.042 132.964 594.604C137.901 593.166 160.909 588.048 159.762 589.753C158.615 591.458 152.397 596.977 155.622 600.98C158.847 604.983 164.367 611.203 164.367 611.203V611.203ZM219.73 258.065C219.73 258.04 219.733 258.015 219.733 257.988C219.733 252.205 218.018 246.551 214.805 241.743C211.592 236.934 207.025 233.186 201.682 230.973C196.339 228.76 190.46 228.181 184.787 229.309C179.115 230.437 173.905 233.222 169.816 237.311C165.726 241.401 162.941 246.611 161.813 252.283C160.685 257.956 161.264 263.835 163.477 269.178C165.69 274.521 169.438 279.088 174.247 282.301C179.055 285.514 184.709 287.229 190.492 287.229C191.171 287.229 193.857 292.317 194.525 292.271C194.565 276.836 204.549 259.101 219.731 258.065H219.73Z" fill="#2F2E41"/>
<path d="M159.234 254.964C169.815 254.964 178.392 246.387 178.392 235.806C178.392 225.225 169.815 216.648 159.234 216.648C148.653 216.648 140.076 225.225 140.076 235.806C140.076 246.387 148.653 254.964 159.234 254.964Z" fill="#2F2E41"/>
<path d="M158.355 206.785C162.972 206.756 167.443 208.397 170.945 211.405C174.446 214.414 176.742 218.588 177.408 223.156C178.074 227.725 177.065 232.38 174.568 236.263C172.071 240.146 168.254 242.995 163.821 244.285C166.566 244.281 169.278 243.686 171.773 242.542C174.267 241.397 176.487 239.73 178.281 237.652C180.075 235.575 181.401 233.136 182.169 230.501C182.938 227.865 183.131 225.096 182.735 222.38C182.339 219.664 181.363 217.064 179.875 214.758C178.386 212.452 176.419 210.493 174.107 209.014C171.794 207.535 169.191 206.57 166.473 206.186C163.756 205.801 160.987 206.006 158.355 206.785ZM203.6 251.939H218.948C222.365 251.939 225.642 253.296 228.058 255.713C230.475 258.129 231.832 261.406 231.832 264.823V270.088H203.6V251.938V251.939Z" fill="#2F2E41"/>
</svg>
