<svg xmlns="http://www.w3.org/2000/svg" viewBox="0 0 500 500">
    <path d="M337 34.58s-77.4-27.52-153.37 16.3S69.3 181.67 36.38 251.34s-14 140.55 44 172.86 97.43-15.32 178.79-17.64 103.27 9.31 170.83-36.65 79.71-154.51 26.46-234.82S337 34.58 337 34.58z" fill="#92e3a9"/>
    <path d="M337 34.58s-77.4-27.52-153.37 16.3S69.3 181.67 36.38 251.34s-14 140.55 44 172.86 97.43-15.32 178.79-17.64 103.27 9.31 170.83-36.65 79.71-154.51 26.46-234.82S337 34.58 337 34.58z" fill="#fff" opacity=".7"/>
    <g fill="none" stroke="#263238" stroke-linecap="round" stroke-linejoin="round">
        <path d="M279.64 486.43V26.68M332.54 486.43V26.68M388.33 486.43V68.04M441.23 486.43V68.04M161.33 486.43V68.04M214.23 486.43V34M29.57 330.62h447.24M29.57 336.39h447.24"/>
    </g>
    <g stroke="#263238">
        <path d="M449.19 135.39s-1-1.12-1.47-1.17-1.9-.25-1.9-.25l-2.35-3.51a.59.59 0 00-.43 1c.55.86 1.74 3.29 1.74 3.29a3 3 0 00-.57 1 5 5 0 00.41 1.65 18.27 18.27 0 014.57-2.01zM441.05 139.88s-1-1.12-1.48-1.16l-1.89-.26-2.35-3.46a.59.59 0 00-.43 1c.55.85 1.74 3.28 1.74 3.28a3 3 0 00-.57 1 4.93 4.93 0 00.41 1.65 18.27 18.27 0 014.57-2.05zM433.26 144.61s-1-1.12-1.47-1.17-1.9-.25-1.9-.25l-2.35-3.51a.59.59 0 00-.43 1c.55.86 1.74 3.28 1.74 3.28a3.05 3.05 0 00-.57 1 5.22 5.22 0 00.42 1.65 18.06 18.06 0 014.56-2zM426 150.75s-1.27-1.11-1.82-1.14-2.37-.2-2.37-.2l-2.83-3.53s-1.24.17-.58 1 2.09 3.32 2.09 3.32a3.3 3.3 0 00-.76 1.05 4.32 4.32 0 00.47 1.69 26.57 26.57 0 015.8-2.19zM416.69 157.21s-1.27-1.12-1.81-1.15-2.37-.2-2.37-.2l-2.84-3.52s-1.23.17-.57 1 2.08 3.31 2.08 3.31a3.25 3.25 0 00-.75 1.06 4.34 4.34 0 00.46 1.69 26.57 26.57 0 015.8-2.19zM406.86 163.11s-1.26-1.11-1.81-1.11-2.37-.2-2.37-.2l-2.83-3.53s-1.24.17-.58 1 2.08 3.31 2.08 3.31a3.41 3.41 0 00-.75 1.06c-.12.44.47 1.68.47 1.68a27 27 0 015.79-2.21zM397.88 167.6s-1.27-1.12-1.81-1.15-2.37-.2-2.37-.2l-2.84-3.52s-1.23.17-.57 1 2.08 3.31 2.08 3.31a3.39 3.39 0 00-.76 1.06 4.5 4.5 0 00.47 1.69 26.57 26.57 0 015.8-2.19zM387.76 173.61s-1.08-1.75-1.67-1.88-2.54-.65-2.54-.65l-2.13-5.33s-1.41 0-.92 1.34 1.36 4.92 1.36 4.92a5.11 5.11 0 00-1.12 1.34 7.26 7.26 0 000 2.41 28.17 28.17 0 017.02-2.15zM381 178.59s-1.32-2-2-2.17-3.12-.75-3.12-.75l-2.58-6.17s-1.73.06-1.14 1.56 1.65 5.69 1.65 5.69a6.15 6.15 0 00-1.38 1.57 7.9 7.9 0 000 2.79 36.24 36.24 0 018.57-2.52zM370.3 184.2s-1.32-2-2-2.17-3.12-.74-3.12-.74l-2.58-6.17s-1.73 0-1.14 1.55 1.65 5.7 1.65 5.7a6.15 6.15 0 00-1.38 1.57 7.91 7.91 0 000 2.79 36.71 36.71 0 018.57-2.53zM358.79 187.85s-1.32-2-2-2.17-3.12-.74-3.12-.74l-2.58-6.17s-1.73 0-1.14 1.55 1.65 5.7 1.65 5.7a6.15 6.15 0 00-1.38 1.57 7.91 7.91 0 000 2.79 36.49 36.49 0 018.57-2.53zM346.94 191.65s-.95-2.21-1.64-2.48-2.95-1.26-2.95-1.26l-1.51-6.52s-1.71-.24-1.38 1.35.67 5.89.67 5.89a6.23 6.23 0 00-1.63 1.31 7.93 7.93 0 00-.43 2.76 36.06 36.06 0 018.87-1.05zM334.7 193.69s-.73-2.3-1.39-2.63-2.81-1.55-2.81-1.55l-.86-6.63s-1.67-.41-1.5 1.2.08 5.93.08 5.93a6.11 6.11 0 00-1.75 1.14 8 8 0 00-.7 2.71 36.23 36.23 0 018.93-.17zM323.55 193s-.09-2.41-.63-2.91-2.29-2.24-2.29-2.24l1-6.63s-1.5-.84-1.77.76-1.52 5.73-1.52 5.73a6.13 6.13 0 00-2 .63 7.9 7.9 0 00-1.4 2.42 35.93 35.93 0 018.61 2.24zM463.73 127.17s-.93-1.27-1.31-1.33-1.64-.34-1.64-.34l-2.15-3.93s-.84.12-.34 1.08 1.62 3.66 1.62 3.66a3.32 3.32 0 00-.47 1.09 7.54 7.54 0 00.42 1.83 13.13 13.13 0 013.87-2.06zM455.65 130.33s-1-1.12-1.48-1.16-1.89-.25-1.89-.25l-2.35-3.51a.59.59 0 00-.43 1c.55.86 1.74 3.28 1.74 3.28a3.08 3.08 0 00-.57 1 5 5 0 00.41 1.66 18 18 0 014.57-2.02z" fill="#fff" stroke-linecap="round" stroke-linejoin="round"/>
        <path d="M312.53 199.34s3.09 5.62 3.93 5.9 3.65 1.4 3.65 1.4l3.65 10.36s2 0 1.13-2.53-2.53-9.54-2.53-9.54a8.66 8.66 0 001.4-2.53 19.19 19.19 0 00.28-3.37 29.9 29.9 0 00-11.51.31zM325.45 198.5s3.09 5.61 3.93 5.9 3.65 1.4 3.65 1.4l3.65 10.39s2 0 1.12-2.53-2.53-9.55-2.53-9.55a8.49 8.49 0 001.41-2.52 19.26 19.26 0 00.28-3.37 29.91 29.91 0 00-11.51.28zM338.36 195.69s3.09 5.62 3.93 5.9 3.65 1.4 3.65 1.4l3.65 10.39s2 0 1.13-2.53-2.53-9.54-2.53-9.54a8.66 8.66 0 001.4-2.53 19.19 19.19 0 00.28-3.37 29.9 29.9 0 00-11.51.28zM349.87 191.76s3.09 5.62 3.94 5.9 3.64 1.4 3.64 1.4l3.65 10.39s2 0 1.13-2.53-2.53-9.54-2.53-9.54a8.66 8.66 0 001.4-2.53 18.55 18.55 0 00.29-3.37 30 30 0 00-11.52.28zM361.67 186.93s2.85 5.19 3.63 5.45 3.37 1.3 3.37 1.3l3.37 9.59s1.82 0 1-2.33-2.34-8.82-2.34-8.82a8 8 0 001.3-2.33 17.74 17.74 0 00.26-3.12 27.71 27.71 0 00-10.59.26zM374 183.06s1.43 2.83 2.13 3.07 3 1.16 3 1.16l3 8.59s1.63 0 .93-2.09-2.09-7.9-2.09-7.9a7 7 0 001.16-2.09 15.39 15.39 0 00-.3-3.83 24 24 0 01-7.83 3.09zM381.81 178.17s1.61 2.11 2.22 2.19 2.66.49 2.66.49l3.82 6.59s1.33-.25.44-1.86-2.95-6.16-2.95-6.16a5.77 5.77 0 00.63-1.9 13.1 13.1 0 00-.84-3.11 20.1 20.1 0 01-5.98 3.76zM392.48 172.84s1.61 2.11 2.22 2.19 2.66.48 2.66.48l3.82 6.6s1.33-.25.44-1.86-2.95-6.17-2.95-6.17a5.77 5.77 0 00.63-1.9 13 13 0 00-.84-3.1 20.1 20.1 0 01-5.98 3.76zM401.68 166.89s1.54 1.8 2.13 1.86 2.59.37 2.59.37l3.6 5.68s1.31-.25.47-1.64-2.75-5.31-2.75-5.31a5.19 5.19 0 00.66-1.67 10.25 10.25 0 00-.77-2.7 21.14 21.14 0 01-5.93 3.41zM411.52 160.48s1.52 1.86 2.1 1.92 2.56.4 2.56.4l3.57 5.82s1.29-.24.45-1.66-2.74-5.46-2.74-5.46a5.22 5.22 0 00.63-1.7 11 11 0 00-.77-2.75 20.35 20.35 0 01-5.8 3.43zM420.34 154.19s1.53 1.86 2.11 1.93 2.55.39 2.55.39l3.58 5.83s1.29-.25.45-1.67-2.75-5.45-2.75-5.45a5.26 5.26 0 00.64-1.7 11.15 11.15 0 00-.77-2.76 20.33 20.33 0 01-5.81 3.43zM428.73 148.21s1.33 1.61 1.83 1.67 2.22.34 2.22.34l3.11 5.06s1.12-.21.39-1.45-2.39-4.73-2.39-4.73a4.55 4.55 0 00.55-1.48 9.28 9.28 0 00-.67-2.39 17.56 17.56 0 01-5.04 2.98zM436.59 142.31s1.21 1.64 1.66 1.7 2 .4 2 .4l2.86 5.1s1-.19.31-1.43-2.21-4.77-2.21-4.77a4.65 4.65 0 00.45-1.46 10.59 10.59 0 00-.64-2.4 14.48 14.48 0 01-4.43 2.86zM444.63 137.44s1.15 1.4 1.58 1.45 1.92.3 1.92.3l2.69 4.4s1-.18.34-1.26-2.07-4.11-2.07-4.11a4.15 4.15 0 00.48-1.28 8.24 8.24 0 00-.58-2.08 15.2 15.2 0 01-4.36 2.58zM452.45 133s1.09 1.2 1.52 1.23 1.87.22 1.87.22l2.54 3.78s.94-.18.35-1.1-1.94-3.55-1.94-3.55a3.34 3.34 0 00.49-1.13 6.07 6.07 0 00-.52-1.8 16 16 0 01-4.31 2.35zM459.75 129.64s1 1.22 1.37 1.26 1.66.26 1.66.26l2.33 3.82s.83-.16.29-1.09-1.79-3.58-1.79-3.58a3.44 3.44 0 00.41-1.11 7.33 7.33 0 00-.51-1.81 13.19 13.19 0 01-3.76 2.25z" fill="#263238" stroke-linecap="round" stroke-linejoin="round"/>
        <path d="M317.59 189.51s13.19 9.27 43.51-4.49 62.61-34.64 71.88-41.83c13.76-10.67 48.29-24.71 45.77-23.31s-28.36 14.89-35.66 19.66-29.48 21.9-42.4 30-37.62 26.11-54.47 29.48-21.05 3.93-24.7 2.53-5.62-2.25-5.62-2.25z" fill="#fff" stroke-linecap="round" stroke-linejoin="round"/>
        <path d="M440 141.67a2.28 2.28 0 00-1.42.19c-2.5 2-6.39 5.68-9.59 7.45s-7.1 1.42-8.81 3.66a22.89 22.89 0 01-8.64 7.51c-4.68 2.29-6.47 1.48-8.82 5.17s-4.24 3.43-9.59 6-5.35 1.93-8.87 5.33-6.75 6-12.07 6.74-7.46 2.13-9.94 5.68-6.4 3.55-11 3.2-6.39 1.42-8.88 4.26-5.38 1.33-9.23 0-2.84 1.77-6 2.84-7.1-3.2-7.1-3.2l-3 3.28c.94.38 2.44 1 4.5 1.78 3.65 1.4 7.86.84 24.7-2.53s41.56-21.34 54.47-29.48c11.4-7.17 30.06-21.39 39.29-27.88z" fill="#263238" stroke-linecap="round" stroke-linejoin="round"/>
        <path d="M260.58 170.92s1.42 0 1.42-2.13 4.25-2.12 4.6-1.06 2.84-2.84 6-2.13a6.22 6.22 0 014.25 2.84s2.13-3.55 4.25-2.84a4.77 4.77 0 012.84 2.48s2.48-3.89 5-2.48 3.55 4.26 4.25 8.15 3.19 9.57 2.49 14.18-15.95-7.09-22.69-9.21-12.41-7.8-12.41-7.8z" fill="#fff" stroke-linecap="round" stroke-linejoin="round"/>
        <path d="M137.59 100.39s5.32 2.48 7.09 2.48 6-2.48 6-2.48 3.9 6 2.48 6.38-4.61-.71-3.9 3.19 4.61 14.18 5.67 13.11.35-1.77-.35-4.61-1.42-7.79-1.42-7.79 2.48-1.42 2.83 1.06 4.26 13.11 4.26 13.11-2.84 2.13-2.84 4.61 3.9 11.7 3.9 11.7 2.13 0 1.77-2.84-2.12-5.67-1.06-6.38 2.13 2.13 2.83 5a39.12 39.12 0 001.42 4.61s-2.83.71-2.83 4.61 4.6 12.76 4.6 12.76 2.13 1.06.71-3.9-2.48-8.86-1.06-8.15 2.13 2.83 2.13 3.9 2.12 9.21 2.12 9.21-3.54 1.42-3.19 5 3.9 12.76 5 9.93-.7-6.74-.7-8.86 1.06-2.13 1.77 0 1.06 4.6 2.48 5.67 2.13 2.12 1.77 3.19-4.61 3.54-3.54 5.67 5.31 11.69 5.31 11.69 30.84-1.41 52.1 4.61 49.27 2.48 57.07 2.48 9.56-1.06 5.67-11.34-17.73-13.82-39.7-18.07-42.53-6.38-48.91-6.38-7.09-.71-9.92 2.83-3.9 7.8-6 9.22-3.54-1.07-4.25-3.55a69.27 69.27 0 00-2.84-7.09s3.55-2.12 4.26-4.25.35-3.9-1.07-3.9h-6c-1.77 0-3.55-5.67-3.55-5.67s6.74.36 7.09-2.48-1.77-8.15-2.83-8.51-3.9 1.42-5.32 1.42-3.9-5.67-3.19-7.09 6.73-.35 6.73-.35.36-6.38-1.06-8.51-3.9-.35-5.67 0-3.54-5.67-3.54-5.67 4.25-.35 5.31-2.12.71-6.38-1.06-8.51-4.61 1.06-6.38 1.42-3.19-3.19-2.84-4.26 5-1.41 5.67-2.48 1.42-6.38-.35-7.79-6 2.12-7.09 2.12-3.19-2.12-2.12-3.19 4.25-5 4.25-6.38-.71-4.6-2.84-3.54-4.25 5.67-6.73 5.67-6.38-8.15-6.38-8.15z" fill="#fff" stroke-linecap="round" stroke-linejoin="round"/>
        <path d="M313 239.32c-2.83-5.67-17-35.44-17-35.44l-10.63 17 5.67 3.19a146.69 146.69 0 0111 11c4.25 5 7.08 12.05 10.63 12.05s3.2-2.12.33-7.8zm-14.17-12.76l2.83-3.19 6.73 13.83z" fill="#263238" stroke-linecap="round" stroke-linejoin="round"/>
        <path d="M269.79 198.56s-1.77 6.38-4.25 12.76 2.84 9.22 5.67 9.22 3.19 2.12 1.42 8.15-2.13 14.18-7.09 23.75-5.67 18.43-3.19 20.55 8.51.36 8.51.36l3.19 3.19s-2.13 1.06-.71 3.9 13.47 15.59 19.14 24.45 8.5 14.18 8.5 15.24 3.9 9.92 6.74 9.92 5.67-1.77 5.67-.7 6.38 25.16 5.67 29.77-1.07 7.79-5 11.69-5.68 5.67-7.09 8.51a13.94 13.94 0 00-1.77 7.09 9 9 0 001.06 4.25s1.42-6.73 2.48-8.15 3.54-2.48 5.67-5 2.13-3.9 2.13-3.9l5.67-1.07s-.71 2.84-2.48 3.55-5 4.25-5.32 7.09-1.06 7.44-1.06 7.44 3.54-7.44 5.31-9.21 5.32-2.13 6-5a19.11 19.11 0 00.71-3.9l5-3.89s0-13.47-.36-17-.7-6-.7-6 3.89 4.25 3.89 7.8a32.92 32.92 0 001.07 7.44l1.42 3.9a46.47 46.47 0 00.35-8.51c-.35-3.19-1.77-6.38-1.77-7.44s.35-3.19-.71-4.61-2.13-2.13-2.48-3.9-1.07-3.54-1.42-5.67 1.77-.35-.35-2.12-3.19-2.84-4.61-3.9-3.19-1.78-5-3.9-3.19-2.13-4.26-3.55-.71-2.83-1.06-4.25-3.9-7.09-6-9.57-15.24-22-16.65-24.81-3.19-5.31-3.55-6.73-1.41-1.77-2.48-2.13-1.06-1.06-1.06-2.48-3.9-7.44-6-9.57 1.07-18.78 5.32-28 12-18.78 13.11-21.62 2.84-10.28-2.48-13.47-19.13-4.53-24.8.03z" fill="#263238" stroke-linecap="round" stroke-linejoin="round"/>
        <path d="M290 199.27c7.8 0 9.57-1.06 5.68-11.34s-17.73-13.82-39.7-18.07-42.53-6.38-48.91-6.38-7.09-.71-9.92 2.83-3.9 7.8-6 9.22a1.94 1.94 0 01-1.52.37c-.12 2.58-.31 4.59-1.67 4.59-2.48 0-3.54-1.77-3.54-4.25s-2.48-3.9-5.32-6.38-.71-4.61-.35-6.74-2.48-5-4.26-6.38-.71-7.8 0-10.28-2.48-3.54-5-5-.71-6-.71-9.57-1.06-3.9-3.54-6.38 0-6 0-8.5-2.48-2.48-5-4.61 0-4.25-1.42-8.51-6.73-3.9-7.09-7.44c-.18-1.77 1.06-4.34 2.35-6.46-2.29-2-4.83-7.36-4.83-7.36l-11.7 17.72s5.32 2.48 7.09 2.48 6-2.48 6-2.48 3.9 6 2.48 6.38-4.61-.71-3.9 3.19 4.61 14.18 5.67 13.11.35-1.77-.35-4.61-1.42-7.79-1.42-7.79 2.48-1.42 2.83 1.06 4.26 13.11 4.26 13.11-2.84 2.13-2.84 4.61 3.9 11.7 3.9 11.7 2.13 0 1.77-2.84-2.12-5.67-1.06-6.38 2.13 2.13 2.83 5a39.12 39.12 0 001.42 4.61s-2.83.71-2.83 4.61 4.6 12.76 4.6 12.76 2.13 1.06.71-3.9-2.48-8.86-1.06-8.15 2.13 2.83 2.13 3.9 2.12 9.21 2.12 9.21-3.54 1.42-3.19 5 3.9 12.76 5 9.93-.7-6.74-.7-8.86 1.06-2.13 1.77 0 1.06 4.6 2.48 5.67 2.13 2.12 1.77 3.19-4.61 3.54-3.54 5.67 5.31 11.69 5.31 11.69 30.84-1.41 52.1 4.61 49.3 2.44 57.1 2.44z" fill="#263238" stroke-linecap="round" stroke-linejoin="round"/>
        <path d="M200.33 163.12s7.44 10.28 9.57 26.58 1.41 36.15 1.41 36.15a75.58 75.58 0 002.84-25.16c-.71-14.53-6-34.38-7.09-37.21s-5.32-3.9-6.73-.36zM210.6 163.12s7.45 10.28 9.57 26.58 1.42 36.15 1.42 36.15a75.58 75.58 0 002.84-25.16c-.71-14.53-6-34.38-7.09-37.21s-5.34-3.9-6.74-.36zM224.08 163.92s6.58 10.86 7.36 27.28-1.56 36.15-1.56 36.15a75.91 75.91 0 004.89-24.85c.49-14.54-3.18-34.76-4-37.67s-4.98-4.32-6.69-.91zM233.3 165.7s6.57 10.85 7.35 27.27-1.56 36.15-1.56 36.15a75.74 75.74 0 004.9-24.85c.48-14.54-3.18-34.76-4-37.67s-4.99-4.32-6.69-.9z" fill="#fff" stroke-linecap="round" stroke-linejoin="round"/>
        <path d="M240.74 166.4s6.57 10.86 7.35 27.28-1.55 36.15-1.55 36.15a75.91 75.91 0 004.89-24.83c.49-14.54-3.18-34.76-4-37.67s-4.98-4.33-6.69-.93z" fill="#fff" stroke-linecap="round" stroke-linejoin="round"/>
        <path d="M248.54 168.18s6.57 10.85 7.35 27.27-1.56 36.15-1.56 36.15a75.74 75.74 0 004.9-24.85c.48-14.54-3.18-34.75-4-37.67s-4.99-4.32-6.69-.9z" fill="#fff" stroke-linecap="round" stroke-linejoin="round"/>
        <path d="M256.34 170.2s6.18 10.33 6.89 26-1.5 34.42-1.5 34.42a72.86 72.86 0 004.63-23.67c.47-13.84-3-33.09-3.73-35.87s-4.63-4.14-6.29-.88z" fill="#fff" stroke-linecap="round" stroke-linejoin="round"/>
        <path d="M263.78 170.75s5.87 9.75 6.56 24.51-1.41 32.47-1.41 32.47a68.21 68.21 0 004.39-22.32c.44-13.06-2.83-31.23-3.57-33.85s-4.45-3.88-5.97-.81zM271.25 172.77a50.69 50.69 0 016.7 22.9c.77 13.77-1.23 30.28-1.23 30.28a59.69 59.69 0 004.26-20.8c.37-12.18-3-29.14-3.75-31.58s-4.47-3.65-5.98-.8zM279.06 175.46a48.25 48.25 0 015.64 21c.6 12.64-1.2 27.81-1.2 27.81a58.49 58.49 0 003.76-19.11c.38-11.19-2.44-26.74-3.07-29s-3.82-3.33-5.13-.7z" fill="#fff" stroke-linecap="round" stroke-linejoin="round"/>
        <path d="M142.21 81.81c-1.46-3.29-24.48-21.56-46.4-30.69S54.53 33.59 49.05 32.49a55.72 55.72 0 00-9.86-1.1s1 2.27 9.29 8a3.89 3.89 0 00-1.63.66s-.12 8.78 1 8.47c.94-.25 3.17-5.33 3.86-7 1.19.78 2.49 1.62 3.9 2.5 0 1.6 0 8.4 1 8.13.73-.2 2.28-3.4 3.24-5.55 1.28.77 2.58 1.52 3.89 2.27 0 2.26.11 7.76 1 7.51.7-.19 2.13-3.08 3.1-5.21 1.6.89 3.21 1.77 4.81 2.63 0 2.39.13 7.5 1 7.26.69-.19 2.08-3 3-5.1l3.07 1.63c0 1.72 0 8.31 1 8 .77-.21 2.39-3.62 3.34-5.76l3.26 1.74c0 2.4.14 7.46 1 7.23.68-.18 2.05-2.93 3-5 5.65 3.17 9.53 5.7 10 7.3 1.1 4-1.82 11.33-1.82 11.33l-2.56 2.92 7.67 1.1s-.73-8 .73-12.06 13.89 4.75 13.89 4.75l-1.47 8 3.66 1.46s.36-6.94 1.82-6.94 9.87 8 13.52 9.5 6.91-6.06 5.45-9.35z" fill="#263238" stroke-linecap="round" stroke-linejoin="round"/>
        <path d="M49.59 36.76s.37 8.77 1.46 8.4 3.66-7.67 3.66-7.67-2.2-2.92-5.12-.73zM58.54 39.94s.36 8.77 1.46 8.4 3.65-7.67 3.65-7.67-2.19-2.92-5.11-.73zM66.89 43.72s.36 8.76 1.46 8.4S72 44.45 72 44.45s-2.19-2.93-5.11-.73zM76 47.89s.37 8.77 1.46 8.4 3.66-7.67 3.66-7.67S79 45.7 76 47.89zM83.39 52.07s.36 8.76 1.46 8.4 3.65-7.67 3.65-7.67-2.19-2.93-5.11-.73zM91.14 54.85s.37 8.77 1.46 8.4 3.66-7.67 3.66-7.67-2.2-2.92-5.12-.73zM46.71 79.12s2-7.5 3-6.72 1.9 8.25 1.9 8.25-2.61 1.62-4.9-1.53zM54.07 79.94s2-7.5 3-6.72 1.9 8.25 1.9 8.25-2.63 1.62-4.9-1.53zM63.06 80.73s2-7.5 3-6.72 1.89 8.25 1.89 8.25-2.62 1.63-4.89-1.53zM72.29 82.08s2-7.51 3-6.72 1.89 8.24 1.89 8.24-2.62 1.63-4.89-1.52zM80.06 83.23s2-7.51 3-6.72 1.89 8.24 1.89 8.24-2.62 1.63-4.89-1.52zM86.62 84.45s2-7.5 3-6.72S91.47 86 91.47 86s-2.58 1.6-4.85-1.55z" fill="#fff" stroke-linecap="round" stroke-linejoin="round"/>
        <path d="M91.43 28.11s-4.75.36-6.58-4-18.63-6.58-30.68-5.48-16.08 8-16.08 11.32 12.42 7.31 15 8 34 16.44 36.9 16.8 2.56 0 5.84 1.83 22.65 12.79 28.5 17.9 10.23 11.69 15.34 13.88 9.5 5.48 10.6 1.83 1.46-8.77.36-10.23a16.45 16.45 0 01-2.92-9.86c0-5.12 4.38-14.25 1.46-19.36s-7.3-5.48-9.5-5.12-4 1.1-5.11 1.1h-2.19s4.75-10.6 2.92-13.15-24.48-12.06-32.88-12.06-10.98 6.6-10.98 6.6z" fill="#fff" stroke-linecap="round" stroke-linejoin="round"/>
        <path d="M117 34s-12-5.48-17.17-2.56-1.46 10.6 4.39 15 17.17 6.94 20.09.73S119.56 34.32 117 34z" fill="#fff" stroke-linecap="round" stroke-linejoin="round"/>
        <path d="M117 34s-12-5.48-17.17-2.56c-2.7 1.55-2.94 4.43-1.71 7.45 2.48-1.06 6.56-2.18 7.56 1.32a4.91 4.91 0 01-2.17 5.64c.23.2.46.39.71.57a23.32 23.32 0 006.55 3.33c1.72-1.85 4.36-4.14 6.6-3.69 2 .4 3.44 2.21 4.35 3.78a5.83 5.83 0 002.59-2.69c2.92-6.26-4.75-12.83-7.31-13.15zM81.2 34s1.46-7.31-3.29-9.5-28.13-2.24-22.28 2.5 22.28 9.14 25.57 7zM132.35 46.74s-7.31 11-3.29 12 9.5-5.84 9.86-8.76-4.38-3.61-6.57-3.24zM150.25 56.6a19.16 19.16 0 01-9.5 8.4c-6.58 2.56-8.77 9.5-4.75 8.41s9.86 3.65 14.25-16.81z" fill="#263238" stroke-linecap="round" stroke-linejoin="round"/>
        <path d="M137.46 88s-24.11-1.1-46.76-4.75-43.11-6.58-46-4-5.12 6.94-1.46 9.13S63.3 95 71.7 98.61s17.17 13.16 27.4 13.16 13.15-2.2 13.15-2.2 9.14 4.39 16.08 2.56 13.52-11 16.44-13.88 3.65-5.85 1.09-8-8.4-2.25-8.4-2.25z" fill="#fff" stroke-linecap="round" stroke-linejoin="round"/>
        <path d="M99.1 111.77c10.23 0 13.15-2.2 13.15-2.2s.9.43 2.34 1l-.87-1c-7.31-8-42-17.9-57.73-23s-12.78 1.82-12.78 1.82C46.86 90.58 63.3 95 71.7 98.61s17.17 13.16 27.4 13.16z" fill="#263238" stroke-linecap="round" stroke-linejoin="round"/>
        <path d="M136.53 257.4a3.22 3.22 0 00-2.83 3.19c0 2.83.35 4.25-1.78 4.25s-13.11 11-13.11 11 3.19 3.19 5.67.71 10.28-9.22 12-10.28 5.32-2.84 5.32-6-3.8-2.52-5.27-2.87z" fill="#fff" stroke-linecap="round" stroke-linejoin="round"/>
        <path d="M164.18 213.45s-1.78 1.42-11 0-10.28 5-10.63 7.44a60.18 60.18 0 01-4.26 18.79c-3.9 9.57-8.5 13.11-6.38 16.65s8.15 1.78 9.57 1.78 6.38 1.41 6.38-2.84-1.77-16.66-.35-24.1 7.09-9.21 12-7.44 7.09-1.42 7.09-3.9-.6-3.9-2.42-6.38z" fill="#fff" stroke-linecap="round" stroke-linejoin="round"/>
        <path d="M153.19 213.45c-9.22-1.42-10.28 5-10.63 7.44a60.18 60.18 0 01-4.26 18.79l-.3.71c3-2.52 6.17-4.59 8.81-5h.24a31.06 31.06 0 01.47-4.23c1.42-7.44 7.09-9.21 12-7.44s7.09-1.42 7.09-3.9-.71-3.9-2.48-6.38c.05.01-1.73 1.43-10.94.01z" fill="#263238" stroke-linecap="round" stroke-linejoin="round"/>
        <path d="M194 191.48s-8.51.35-14.18-3.19-12.4 0-12.4 2.83 1.06 5.32-.36 6-6.38 5.67-6.38 8.15 1.77 20.2 6 20.91 1.77-7.09 1.77-14.18 3.17-12 3.55-13.08 5.32-2.13 7.8-.36 6.38 5.32 11 4.61 7.05-6.38 3.2-11.69z" fill="#263238" stroke-linecap="round" stroke-linejoin="round"/>
        <path d="M209.19 182.61s-12.76-4.25-15.6-2.12-1.06 13.11-1.77 15.24-9.57 4.61-11 8.15 2.13 19.85 8.15 23 17 0 18.79-6.74-.36-19.84 0-25.87 14.53-13.47 24.1-18.07 20.56-4.61 19.85-6.38-8.15-4.26-14.53-3.55-23.39 10.32-27.99 16.34z" fill="#fff" stroke-linecap="round" stroke-linejoin="round"/>
        <path d="M204.23 203.88s-7.8 9.92-6.74 13.11 3.9 1.42 5.32 4.61 6 19.14 5.67 20.91-4.25 7.09-1.77 9.93 11.69.7 12.4-3.19-3.54-8.86-5.32-13.83-7.44-19.14-5.31-23.74 6.38-7.45 3.54-9.93-7.79 2.13-7.79 2.13z" fill="#fff" stroke-linecap="round" stroke-linejoin="round"/>
        <path d="M206.71 252.44s-5.32 2.48-3.19 6.38 2.83 7.44 0 14.17-8.86 18.43-7.09 21.27 7.44 1.77 7.44-.36 1.77-13.82 5.67-21.26 7.8-13.82 6.74-17.72-9.57-2.48-9.57-2.48z" fill="#fff" stroke-linecap="round" stroke-linejoin="round"/>
        <path d="M212 251.73s-4.61 2.83-2.83 6.73 3.54 12.76 2.12 17.72-6.38 17-6 18.43 6 3.19 6.73-.71 2.48-16.65 5-23 5.67-12.76 3.9-16.31-6.77-4.99-8.92-2.86z" fill="#fff" stroke-linecap="round" stroke-linejoin="round"/>
        <path d="M210.25 306s4.25 8.51 6.38 12.05a47.88 47.88 0 006 7.45 26.58 26.58 0 012.49 2.83 6.18 6.18 0 01.7 2.84s2.84.71 3.19 2.48.71 3.9.71 3.9 1.78.71 1.78 4.6a7.08 7.08 0 01-2.49 5.68s1.42-3.55 0-5.68a20.12 20.12 0 01-2.12-4.25s-1.77 0-2.48-2.48a9.81 9.81 0 00-2.84-4.25s-3.54-3.9-7.44-9.22-6-9.92-6-11.69.35-7.85 2.12-4.26z" fill="#263238" stroke-linecap="round" stroke-linejoin="round"/>
        <path d="M197.49 294.61a5.46 5.46 0 00-1.77 4.61c.35 2.84 2.13 15.59 1.42 19.49s1.41 9.93 4.25 6.74.71-13.47.71-17.72 3.54-10.28 1.77-11.7-5.32-1.03-6.38-1.42z" fill="#fff" stroke-linecap="round" stroke-linejoin="round"/>
        <path d="M205.29 294.61s-1.77 2.48-1.42 7.09 4.61 16.3 5.32 19.85 5.67.71 5-2.48-3.9-7.8-3.9-13.12 5-11 1.77-12.05-5.35-2.12-6.77.71zM204.93 323.67s-3.19-5-7.44-3.19-3.49 8.87-2.49 13.83 3.9 14.17 3.9 14.17 5.32-13.82 6-17a26 26 0 00.03-7.81z" fill="#fff" stroke-linecap="round" stroke-linejoin="round"/>
        <path d="M214.15 319.07s-5.67.35-4.25 4.6 5.31 9.22 3.54 14.54l-2.44 7.44s11-5.32 12-11-6.37-14.17-8.85-15.58zM139 257.75a4.22 4.22 0 00-3.19 3.55c-.71 3.19-.71 4.25-2.83 5s-12.76 5.67-14.18 9.57 4.25 8.86 6 6.38 3.19-7.8 7.45-9.57 12.76-6.38 13.47-9.93-2.1-5.35-6.72-5z" fill="#fff" stroke-linecap="round" stroke-linejoin="round"/>
        <path d="M118.81 275.83s-5.67-5-9.92-7.09-6.74-1.42-6.74-1.42a62.1 62.1 0 00-6.73-4.25 3.63 3.63 0 00-4.61 1.06s-7.44-4.61-11.34-4.61S72 269.8 72 269.8s3.89-3.19 7.08-1.77 6.74 4.25 8.86 4.25 4.61-2.12 4.61-2.12.71 4.25 4.26 4.25a19.61 19.61 0 005.67-.71 36.29 36.29 0 005 2.84 43 43 0 008.15 2.83 49.11 49.11 0 01-9.57-.35c-4.25-.71-10.28.35-10.28.35a56.53 56.53 0 00-8.87-1.37c-2.83 0-11 2.49-11 2.49s-6-2.84-9.92-.71-5.32 11.34-5.32 11.34 5.32-3.9 9.22-4.26 3.54 0 7.09-3.18c0 0 3.9 2.83 8.15 2.83s7.44-1.42 10.28-1.06 6.38 1.77 9.21 1.06 6.74-1.77 6.74-1.77-11.7 6.73-17.37 8.5-7.09 2.13-9.22 2.13a9 9 0 00-4.6 1.06 13.57 13.57 0 00-3.9 2.84c-1.42 1.42-1.77 3.19-2.48 4.25a19.26 19.26 0 00-1.42 4.26 54.52 54.52 0 017.8-6 11.63 11.63 0 004.25-3.54s8.86 0 12-2.13a33.67 33.67 0 004.61-3.54 27.56 27.56 0 006-2.49 21.55 21.55 0 004.26-2.83 14.26 14.26 0 005.71-1.85c3.54-1.77 5.31-2.13 5.67-3.9s-.67-5.32-3.86-5.67z" fill="#263238" stroke-linecap="round" stroke-linejoin="round"/>
        <path d="M296.73 174.11s-6-7.09-9.57-5 2.13 25.52 2.13 34-2.84 12.05 1.06 13.11 5.67-9.21 7.44-11 15.6-.71 19.5-2.84 5.67-13.82 3.19-19.14-16.66-4.17-23.75-9.13z" fill="#fff" stroke-linecap="round" stroke-linejoin="round"/>
        <path d="M307.72 213.1s-9.57 24.1-11 30.83-.36 17-2.84 21.27-7.08 7.79-9.92 7.08-5.32-3.54-5.32-3.54-7.08.35-8.15-3.19 1.07-7.8 4.25-11 9.22-11.69 14.89-25.87 4.25-22.68 8.86-25.16 14.51-2.52 9.23 9.58z" fill="#fff" stroke-linecap="round" stroke-linejoin="round"/>
        <path d="M294.25 270.16s-5.32-3.19-8.86-.71-3.9 8.5-2.13 11.34 13.82 18.43 18.08 24.81 2.12 8.51 6.73 9.21 7.8-1.77 6-6-8.51-10.28-12.05-18.43-6-11.34-6-13.11a17.45 17.45 0 00-1.77-7.11z" fill="#fff" stroke-linecap="round" stroke-linejoin="round"/>
        <path d="M304.17 310.56s-8.86 17-13.11 20.91-3.9 6.38-1.77 7.8 5.67-1.42 6-2.48 8.15-16.66 9.22-18.79 2.48-3.89 2.83-5-1.4-3.15-3.17-2.44z" fill="#fff" stroke-linecap="round" stroke-linejoin="round"/>
        <path d="M307.36 313a61 61 0 01-7.44 17.37c-5.32 8.15-5.32 11-2.13 11.69s6.74-2.48 6.74-4.6 4.25-17.37 5.67-20.56-.71-5.63-2.84-3.9z" fill="#fff" stroke-linecap="round" stroke-linejoin="round"/>
        <path d="M304.17 348.84s0-7.8-1.77-9.57-5-1.77-4.61 2.83 2.13 9.93 2.84 16.31 3.54 8.86 5.67 6.38 0-5.32-1.06-8.86a27.79 27.79 0 01-1.07-7.09zM295 344.23s.35-6-2.48-7.44-4.26 2.48-2.84 6.38a36 36 0 012.48 13.11c0 5.32 3.9 10.28 6 5.67s-2.48-11.34-2.84-14.53z" fill="#fff" stroke-linecap="round" stroke-linejoin="round"/>
        <path d="M299.92 361.24s-1.06-4.6-5-2.48-.71 7.45 1.41 11 7.8 7.8 7.8 7.8-2.08-8.56-3.13-12.42z" fill="#fff" stroke-linecap="round" stroke-linejoin="round"/>
        <path d="M307.72 361.24s-1.07-4.6-5-2.48-.7 7.45 1.42 11 7.8 7.8 7.8 7.8-2.13-8.51-3.19-12.41zM314.1 312.33s1.41-.35.35 4.61-2.45 9.92-2.84 12.06 0 9.92 0 9.92a15.89 15.89 0 011.07 5.68c0 3.19.35 6 .35 7.08s1.42 4.26 2.48 6.74 1.78 3.19.36 3.54a4.16 4.16 0 01-5-2.83c-1.07-2.84-1.07-6-2.13-8.15s-2.48-7.09-2.13-8.51 2.13-19.49 2.48-22 1.78-7.44 1.78-7.44z" fill="#fff" stroke-linecap="round" stroke-linejoin="round"/>
        <path d="M313 360.89s.36.71 2.84 4.61 8.86 5.31 8.86 5.31-3.9-5-5-6.73-4.54-3.9-6.7-3.19zM455.29 389.15s-62.39-15.8-75.7-16.63-76.53 7.48-79 8.31-39.93 10.82-39.93 10.82-39.1 1.66-48.25 1.66-52.41-.83-58.23 0-63.22 10.82-69.88 12.48-28.3 5.82-28.3 5.82h-7.5v8.32h412.61z" fill="#fff" stroke-linecap="round" stroke-linejoin="round"/>
        <path fill="#b2b2b2" stroke-miterlimit="10" d="M48.5 419.93h412.55v68.32H48.5z"/>
        <path fill="#263238" stroke-linecap="round" stroke-linejoin="round" d="M48.5 419.93h412.55v10.35H48.5z"/>
    </g>
    <path d="M406 473.27s-4.44 6.1-6.38 6.94-5.55 1.38-6.66 3.88a10.81 10.81 0 00-1.11 3.89h27.48s1.11-3.61 0-5.83a15.48 15.48 0 01-1.39-4.44z" fill="#fff" stroke="#263238" stroke-miterlimit="10"/>
    <path d="M419.8 485.2h-27.29a9.43 9.43 0 00-.66 2.78h27.48a13.08 13.08 0 00.47-2.78zM435.43 479.37l.55 8.89h13.33a10.55 10.55 0 00-.28-5c-.83-2.5-1.66-4.72-1.66-4.72z" fill="#fff" stroke="#263238" stroke-miterlimit="10"/>
    <path d="M436 488.26h13.33a10.71 10.71 0 00.09-3.33h-13.64z" fill="#fff" stroke="#263238" stroke-miterlimit="10"/>
    <path d="M395.18 363.89S397.4 392.76 398 403s8 70.27 8 70.27 10.83 6.66 12.22 6.66 3-76.34 3-76.34l14.16 75.78a17.49 17.49 0 004.72.84c2.22 0 7.22-1.67 7.22-1.67l-4.72-95.49v-19.16s-28 3.89-35.54 2.78a63.75 63.75 0 01-11.88-2.78z" fill="#263238" stroke="#263238" stroke-miterlimit="10"/>
    <path fill="none" stroke="gray" stroke-miterlimit="10" d="M429.05 381.38l-6.11 4.72-1.67 17.49"/>
    <path d="M431.56 246.59s-11.32-1.42-14.64 2.45-4 11.38-6.32 13.17-3.6-.43-4.63 1.91.65 5.22.65 5.22-.27 11.27 1 11.82 7 .54 7 .54l-.93 4.63 14.32.6 1.26-4.84s10.89-6.31 13.83-11.1 2.23-15.41-.71-19.11-10.83-5.29-10.83-5.29z" fill="#b2b2b2" stroke="#263238" stroke-miterlimit="10"/>
    <path d="M414 261.66c-.35.85-.91 1.43-1.25 1.28s-.33-.94 0-1.79.92-1.42 1.26-1.28.37.95-.01 1.79z" fill="#263238"/>
    <path d="M407.77 271.16a2.63 2.63 0 003.45-1M414.14 257.72s1.46-.79 1.62 1.62" fill="none" stroke="#263238" stroke-linecap="round" stroke-linejoin="round"/>
    <path d="M442.39 251.88c-2.94-3.71-10.83-5.29-10.83-5.29s-11.32-1.42-14.64 2.45c0 0 6.26-1.58 5.44 1.09s-7.3 6.75-5.07 8.33 4.74.38 3.71 2.72-2.35 4.63-1.26 4.85 4.14-2.29 5.45-1.75 2.77 4.52 1.52 6.54a5.68 5.68 0 01-3.59 2.39s2.23 5.83 4.19 7.35a4.29 4.29 0 003 .92c2.77-1.69 10.43-6.6 12.83-10.49 2.86-4.79 2.19-15.41-.75-19.11z" fill="#263238" stroke="#263238" stroke-miterlimit="10"/>
    <path d="M393.88 364.48l.79 6.37s4 4.25 15.41 4.52 25.49-1.06 28.94-2.13 4.25-2.12 4.25-2.12l-.62-7.23s-20.89 7.23-48.77.59z" fill="#fff" stroke="#263238" stroke-linecap="round" stroke-linejoin="round"/>
    <path d="M412.11 289.5s-11.79 3.68-15.67 7.56-24 42.13-20.69 48.79 15.26 7.5 15.26 7.5-2.22 6.66.56 10 8.6 8.33 25.54 7.77 25.81-3.33 27.2-6.11 2.22-12.76 2.22-12.76 15-8.89 17.77-17.22-10.53-29.6-16.36-36.26a35.43 35.43 0 00-17.23-10.65c-4.16-1.12-15.27-1.67-18.6 1.38z" fill="#fff" stroke="#263238" stroke-miterlimit="10"/>
    <path fill="none" stroke="#263238" stroke-miterlimit="10" d="M399.62 316.7l-8.61 36.65M395.73 334.47l-6.38 5.27M447.09 330.31l5.27 2.49"/>
    <path d="M409.06 290.61a43 43 0 013.88-4.72c.84-.55 12.77-3.33 16.38-2.22s5.28 6.38 5.28 6.38a94.17 94.17 0 00-25.54.56z" fill="#fff" stroke="#263238" stroke-miterlimit="10"/>
    <path fill="#263238" stroke="#263238" stroke-miterlimit="10" d="M405.73 350.57l-9.72-18.32-1.11 6.66 11.1 16.38-.27-4.72zM405.12 292.14s7.55 8.46 8.66 14.57a62.28 62.28 0 002.22 9.16l3.88-2.5s-2.77-13.32-4.44-17.76-4.34-5.38-4.34-5.38a53 53 0 01-5.98 1.91zM434.32 288.94s1.68 10.55 1.68 15.83v6.94l3 .29 1-20.08a31.72 31.72 0 00-5.68-2.98z"/>
    <path d="M436.82 307s-21.66 0-24.71 1.66-9.71 43.31-8.33 48.86 25.54 10 31.37 8.05 12.77-8.61 13.33-13.05-3.61-39.69-5.28-42.75-6.38-2.77-6.38-2.77z" fill="#92e3a9" stroke="#263238" stroke-miterlimit="10"/>
    <path d="M412.11 308.65s2.22 17.49 1.67 23.6-.28 8.6 7.21 11.38 23 1.11 24.71-5.55-2.22-25-2.5-28.32-16.65-4.76-31.09-1.11z" fill="#92e3a9" stroke="#263238" stroke-miterlimit="10"/>
    <path d="M428.49 339.47s.28 9.71-.28 15a62.22 62.22 0 00-.28 9.43h5.28s.28-11.1.28-16.65v-8.33z" fill="#263238" stroke="#263238" stroke-miterlimit="10"/>
    <path fill="#fff" stroke="#263238" stroke-miterlimit="10" d="M433.76 343.35h-5.83l-.55 5 6.94.28-.56-5.28z"/>
    <g>
        <path d="M277.61 358.39s1.76 40.23 4 60.89 6.51 44.14 5.94 45.56-2.55 2.55-2 5.38 4.24 7.35 4.24 7.35l16.42-.28s.85-6.51.85-9.9-2.83-4.53-2.83-6.8 3.58-61.19 3.58-61.19l2.87-1s-1.64 61.38-.51 64.21a45.64 45.64 0 002.83 5.66 12.07 12.07 0 00-.85 4.24 31.07 31.07 0 00.57 5.09h17.82s2.55-7.92 2-10.47-5.1-5.66-5.1-7.07 4.56-7.96 4.56-15.6 8.24-71.93 8.41-76.74 0-9.65 0-9.65-3.89.45-21.7-.19-38.61-5.88-41.1.51z" fill="#263238" stroke="#263238" stroke-miterlimit="10"/>
        <path fill="none" stroke="#858585" stroke-miterlimit="10" d="M310.73 398.37l10.59-3.3M313.24 399.31l9.86 1.49M306.73 399.36l-13.02-.18M305.57 399.89l-8.06 3.67M310.42 372.63l-.79 16.46M313.35 371.5l-.54 9.25M324.11 462.43s-10.71 11.13-7.41 9.68 15.24-7.62 13.18-5.56M304.75 465.52s-17.1-2.26-13.59-.82 13.59 3.71 9.68 3.91-12.16 0-12.16 0"/>
        <path d="M277.67 364.62l.8.26c4.13 1.29 20.12 6.53 36.48 5.86 18.43-.76 25.68-9 25.68-9l-.24-3.71s-16.58 7.07-35.47 4.7-27.31-4.38-27.31-4.38z" fill="#263238" stroke="#263238" stroke-miterlimit="10"/>
        <path fill="#fff" stroke="#263238" stroke-miterlimit="10" d="M307.98 366.48l-.04 4.11 8.91.32.62-4.74-9.49.31z"/>
        <path d="M286.78 289.93s13.92-6.36 19.52-6.16a12.87 12.87 0 018.6 3.43l25.49 70.87s-4.8 6.47-22.92 8.1-40.68-6-40.68-6z" fill="#b2b2b2" stroke="#263238" stroke-miterlimit="10"/>
        <path d="M291.36 286.53s-.07 25.77.82 24.67a73.31 73.31 0 003.64-6.81s8.1 5.36 8.53 5.37 2.61 0 2.8-1.28 2.91-6.41 2.91-6.41 6.69 7 6.92 4.64-7.74-21.23-8.92-23.68-13.38-6.15-16.7 3.5z" fill="#263238" stroke="#263238" stroke-miterlimit="10"/>
        <path d="M317.25 308.45s7.54 33.07 9.41 44.56 3.58 21.92 3.58 21.92A67.23 67.23 0 00339 374c3.34-.71 12-5.17 12-5.17l.12-3.53s1-4.32.26-7.26-3.54-11.33-3.54-11.33 4.87 3.29 9.22 3.44 6.9-7 6.27-12.65-7.82-13.56-12.51-21.82-11.64-22.84-16.51-25.92-22.86-5-24.09-5.43 7.03 24.12 7.03 24.12z" fill="#92e3a9" stroke="#263238" stroke-miterlimit="10"/>
        <path fill="none" stroke="#263238" stroke-miterlimit="10" d="M347.85 346.71l-11.35-36.53M351.13 365.3s-11.05 7.08-20.58 6.74"/>
        <path d="M270.05 374.44s1.69 5 1.6 7.53 0 6.85-.88 7.24-1.4-1.51-1.38-2.13a8.56 8.56 0 00-.55-2.1s-.39 5.18 0 6.85.51 2.93-1.12 2.25-4.82-4.53-5.56-7.05a12.12 12.12 0 010-6.64c.47-1.65 1.06-6.61 1.06-6.61z" fill="#fff" stroke="#263238" stroke-miterlimit="10"/>
        <path d="M260.91 368.92s-1.22 4.94.63 5.63 7.39 2.13 8.51-.11a10 10 0 00.8-4.95s-7.29.77-9.94-.57z" fill="#92e3a9" stroke="#263238" stroke-miterlimit="10"/>
        <path d="M293.08 311.12l4.83 67.88s-11.78-1.26-18.14-3.56-7.78-3-7.78-3l.1-2.69s-1.56 2.85-6.5 1.63-7.17-2.54-6.72-3.56 5-57.74 5.7-60.62 15.65-13.76 17.15-15.16 8.69-5.09 8.69-5.09z" fill="#92e3a9" stroke="#263238" stroke-miterlimit="10"/>
        <path d="M289.3 283.58s-4.09 5.4-4.46 9.95-1.13 18.29-1.37 19.11 2.9.11 3.79-1.31 3.71-5.06 3.71-5.06l2.11 4.85-1.17-25.37s12-5.59 15.41-1.52 9.91 24.85 9.93 24.22 1.54-8.24 1.54-8.24 4.48 2.44 5.74 2.07 2.12-1.38-1.83-6.92-9.88-13.84-12.93-15.61-15.7-1.6-20.47 3.83z" fill="#92e3a9" stroke="#263238" stroke-miterlimit="10"/>
        <path d="M274.16 317.71s-1.66 23-2.65 33.32-.8 16.58 2.05 18.14 16 5.55 23.93 4.38" fill="none" stroke="#263238" stroke-miterlimit="10"/>
        <path d="M274.84 321.88s11.37 1.24 15.34.55v4.78a43.65 43.65 0 01-10.17-.16c-4.33-.78-5.16-.81-5.16-.81" fill="none" stroke="#263238" stroke-miterlimit="10"/>
        <path d="M290.22 327.21s.63 11.23-.63 11.81-15.33-1-16.35-1.42.52-8.9.52-8.9" fill="none" stroke="#263238" stroke-miterlimit="10"/>
        <path d="M292.18 287.41s6.4 15.24 9 18.87 5.52 4 6.17 1.64.48-21.36.48-21.36-8.51 3.09-15.65.85z" fill="#fff" stroke="#263238" stroke-linecap="round" stroke-linejoin="round"/>
        <path d="M307.81 290.3v-3.74s-8.47 3.09-15.61.85c0 0 1.26 3 2.88 6.65a14 14 0 007.76.34 9 9 0 004.97-4.1z" fill="#263238" stroke="#263238" stroke-miterlimit="10"/>
        <path d="M283.07 272.93s-1.89-2.48-3.51-.83 1.1 5 2.2 5.88 3-.18 3-1M307.56 265.31s2.38-3.31 3.29-1 .93 5.56.06 6.24a1.38 1.38 0 01-1.57.22l-1-3.29" fill="#fff" stroke="#263238" stroke-linecap="round" stroke-linejoin="round"/>
        <path d="M281.23 270.66s3.61 9.49 5.56 13.1 10.52 8.47 17 6.62 8.79-13 7.45-16.36-3.6-9.91-3.6-9.91-3.4-3.66-7.75-4.23-9.84 1.52-11.8 3.95-4.09 5.47-4.09 5.47zM295.17 281.53c5.78.73 7.93-.64 9.52-2.26" fill="#fff" stroke="#263238" stroke-linecap="round" stroke-linejoin="round"/>
        <path d="M299.67 267.15s3.88 7.84 1.95 9.23-3.73-.34-4.32-1.19" fill="#fff" stroke="#263238" stroke-linecap="round" stroke-linejoin="round"/>
        <path d="M293.89 270c.29.88.12 1.72-.37 1.88s-1.12-.42-1.41-1.29-.12-1.71.37-1.88 1.12.37 1.41 1.29zM303.14 267.37c.28.88.12 1.71-.37 1.87s-1.12-.41-1.41-1.29-.12-1.71.37-1.87 1.12.42 1.41 1.29z" fill="#263238"/>
        <path d="M294.46 267.37s-7.78 2.73-7.61 4a3.09 3.09 0 003.65 2.63c2.3-.33 5.87-2 6.52-2.76s.11-3.21-.69-3.86a1.74 1.74 0 00-1.87-.01zM301.36 265.1s7.88-2.43 8.5-1.33a3.11 3.11 0 01-1.38 4.29c-2 1.1-5.88 1.92-6.89 1.66s-2-2.51-1.73-3.52 1.5-1.1 1.5-1.1zM296.71 267.45a2.75 2.75 0 013-.75M281.42 271.41l5.43.19" fill="none" stroke="#263238" stroke-linecap="round" stroke-linejoin="round"/>
        <path fill="#fff" stroke="#263238" stroke-miterlimit="10" d="M342.97 332.42l.36-10.16-13.94.74.41 23.48 12.88-.17.29-13.89z"/>
        <path d="M350.44 338.08a3.75 3.75 0 014.35.36c2.43 1.75 3.78 4.71 2.64 7.36s-2.61 3.44-5.1 3.35-5.07-3.29-5-5.16.82-5.58 3.11-5.91z" fill="#92e3a9" stroke="#263238" stroke-miterlimit="10"/>
        <path d="M352.65 340.24s-5.35-7.05-6.55-8.33a9.21 9.21 0 00-2.84-2l-.29 2.48s-10.17-.16-10.41.87a4.15 4.15 0 00.33 2.29l1.43.68a17.87 17.87 0 002.34 4.23c1.39 1.71 4.22 3.89 5.25 4.14s5.59.4 5.59.4 3 2.6 4.31 1.2.98-4.09.84-5.96z" fill="#fff" stroke="#263238" stroke-miterlimit="10"/>
        <path fill="none" stroke="#263238" stroke-miterlimit="10" d="M334.32 336.26l5.75 1.66M335.48 338.58l5.32 2.27M337.86 341.58l4.51 1.61"/>
        <path d="M306.89 487.2s-.63-11-2.54-12.95-8.07-1.06-10.83.21-3.82 3.82-6.15 6.16a8.81 8.81 0 00-2.76 5.73 6.32 6.32 0 00.42 1.91h21.86z" fill="#fff" stroke="#263238" stroke-miterlimit="10"/>
        <path d="M284.61 486.35a6.32 6.32 0 00.42 1.91h21.86v-1.06s0-.49-.09-1.28h-22.16a3.73 3.73 0 00-.03.43zM331.51 474.25s-3.18-3.61-4.88-2.12-13.86 5.44-13.86 5.44-.36 4.11-.36 6.44a12.49 12.49 0 00.64 4h28.86s.85-3.39-.84-5.94-8.28-4.46-8.28-4.46z" fill="#fff" stroke="#263238" stroke-miterlimit="10"/>
        <path d="M313.05 488h28.86a9.35 9.35 0 00.2-2.54H312.5a11.54 11.54 0 00.55 2.54z" fill="#fff" stroke="#263238" stroke-miterlimit="10"/>
        <path d="M281.23 270.66s-3.17-11.93-2.78-14.89 12.45-7.62 17.67-7.29 6.87 2.08 7.26 3.09 4.16 10.2 4.16 10.2-11-1.81-15.73.57a26 26 0 00-8.17 6.5 10.28 10.28 0 01-2.41 1.82z" fill="#92e3a9" stroke="#263238" stroke-linecap="round" stroke-linejoin="round"/>
        <path d="M281.23 270.66a6.18 6.18 0 006.69-1c3.23-2.8 7.56-7.64 11.69-6.87s8.21 3.42 8.9 1.57-1.72-4.43-6.86-6.07a13.78 13.78 0 00-13.86 3.46 48.35 48.35 0 00-6.56 8.91z" fill="#92e3a9" stroke="#263238" stroke-linecap="round" stroke-linejoin="round"/>
    </g>
    <g>
        <path d="M237.22 363.18l7.12-17.59a27.75 27.75 0 01-1.34-4.46 5.07 5.07 0 01.9-3.11 3.76 3.76 0 011.55-.9s2.45-6.68 3.34-4.89 0 4.89 0 4.89 2.45 4.68 1.79 6.68a7.48 7.48 0 01-2.68 3.34s-2.22 18.26-4.23 21.6a25.5 25.5 0 01-2.89 4.23zM191.12 403l-.44 24.5s-1.11 6.68-1.11 8 2.67 5.12 3.78 5.35 2.67-.67 2.45-1.34-.89-.45-1.11-1.11a8.4 8.4 0 01-.23-2S196 438 196 436s-2-7.13-2-7.13l6.68-25.16zM210.72 356.94l.22 7.57h10.02v-7.57h-10.24zM203.37 348.7s-3.56-.89-3.34 2.68 6.9 4.23 6.9 4.23zM227.42 346.92c.44-.67 2.89-2.45 2.89 1.34s-3.34 7.35-4.67 7.35 1.78-8.69 1.78-8.69z" fill="#fff" stroke="#263238" stroke-linecap="round" stroke-linejoin="round"/>
        <path d="M221.41 330.22s-6.46-5.79-14.7.45-4.68 18-2 22.49a14.45 14.45 0 0013.07 6.64c6.1-.41 9.42-4.76 10.44-10.46.15-.84.1-10.75-.8-10.43 0 0 4.45-1.56 3.12-6.91s-7.35-4.45-9.13-1.78z" fill="#263238" stroke="#263238" stroke-linecap="round" stroke-linejoin="round"/>
        <path d="M225.86 366.29a13.55 13.55 0 00-7.13-3.11c-4.23-.45-10 .66-11.35 1.33s-1.78 3.12-1.78 3.12z" fill="#fff" stroke="#263238" stroke-linecap="round" stroke-linejoin="round"/>
        <path d="M199.36 407.71s1.13 26.52 2.24 37.87 4.64 32.32 4.64 32.32h7l1.48-50.6h1.78l1.73 50.7h8.35s2.35-24.35 3.27-33.08c1.41-13.42.91-35.61.91-35.61z" fill="#263238" stroke="#263238" stroke-linecap="round" stroke-linejoin="round"/>
        <path fill="none" stroke="#858585" stroke-miterlimit="10" d="M211.83 427.3h8.69"/>
        <path d="M206.24 477.9v9a1.34 1.34 0 001.34 1.34h5.49a1.35 1.35 0 001.33-1.52l-1.15-8.84zM218.23 478v8.68a1.34 1.34 0 001.34 1.34H225a1.33 1.33 0 001.34-1.3l.29-8.72z" fill="#fff" stroke="#263238" stroke-linecap="round" stroke-linejoin="round"/>
        <path d="M206.27 366.52c-.67.44-8.69 8-12 14.91s-7.35 22.05-7.35 22.05l11.58 2.45s-1.11 3.78.67 4.23 30.5 1.11 31.84.22-.44-28.28-.44-28.28l11.8-3.56s1.56-7.13-.67-11.13a17.45 17.45 0 00-4.45-5.57l-11.36 4.45z" fill="#fff"/>
        <path d="M191.31 388.86c-.17.49-.33 1-.5 1.49H231c0-.51-.05-1-.07-1.49zM189.91 393.11c-.15.51-.31 1-.46 1.49h41.75l-.06-1.49zM187.4 401.63c-.19.66-.32 1.17-.41 1.49h44.48v-1.49zM192.87 384.6c-.19.48-.38 1-.57 1.49h38.48c0-.54-.06-1-.09-1.49zM188.62 397.37c-.16.52-.3 1-.44 1.49h43.19l-.06-1.49zM198.19 407.37h33.25v-1.49h-33.2l.2.05a9.62 9.62 0 00-.25 1.44zM233.45 363.32l-3.8 1.49H240a19.08 19.08 0 00-1.21-1.49zM205.08 367.57c-.42.4-.93.91-1.5 1.49h38.76a8.4 8.4 0 00-.59-1.49zM197.56 376.09c-.36.49-.71 1-1.05 1.49h46c.07-.41.14-.91.2-1.49zM194.81 380.34c-.2.37-.39.73-.57 1.09-.06.13-.12.27-.19.4h37.38l4.93-1.49zM201 371.83c-.42.48-.84 1-1.27 1.49h43.12c0-.49 0-1-.05-1.49z" fill="#92e3a9"/>
        <path fill="#fff" stroke="#263238" stroke-linecap="round" stroke-linejoin="round" d="M198.47 405.93l2.45-25.39M230.54 382.1l-1.34-6.01"/>
        <path d="M206.27 366.52c-.67.44-8.69 8-12 14.91s-7.35 22.05-7.35 22.05l11.58 2.45s-1.11 3.78.67 4.23 30.5 1.11 31.84.22-.44-28.28-.44-28.28l11.8-3.56s1.56-7.13-.67-11.13a17.45 17.45 0 00-4.45-5.57l-11.36 4.45z" fill="none" stroke="#263238" stroke-miterlimit="10"/>
    </g>
    <g stroke="#263238">
        <path d="M157.68 292l1.32 10.23 10.46-.44-.22-7.57s5.12 1.56 8.46-2.23-1.34-14.47-2.67-17.81S159 285.09 157.68 292z" fill="#fff" stroke-linecap="round" stroke-linejoin="round"/>
        <path d="M156.57 264.6a12.06 12.06 0 00-9.8 7.58c-2.9 7.12 2.89 13.13 6.9 17.36s6.68 8 11.58 6.46 8.68-8.91 11.13-17.14 1.34-15.59-4-16.48-12.03-.45-15.81 2.22z" fill="#263238" stroke-linecap="round" stroke-linejoin="round"/>
        <path d="M153 269.5s-8-8.68-18.92-6-12.69 19.15-8.91 24.49 4 12.25 2.67 14.7 2 8.91 10 6.68 10.25-14 6-22-5.09-14.3-.84-17.37 9.13 3.56 10.47 2a1.48 1.48 0 00-.47-2.5z" fill="#263238" stroke-linecap="round" stroke-linejoin="round"/>
        <path d="M176.61 306.47s-3.34-6-6.68-7.13-16.93 0-18 2.23a29.19 29.19 0 00-1.78 4.67z" fill="#737373" stroke-miterlimit="10"/>
        <path d="M126.79 371.49s0 9.9-.72 14-1.44 10.62 1.26 13.85c1.55 1.86 2.52 2.16 2.88.9s.72-3.59.72-3.59.72 2.15 1.08 0-.36-4.68-.9-6.84-1.26-4.86-1.26-4.86l3.6-12.24z" fill="#fff" stroke-linecap="round" stroke-linejoin="round"/>
        <path d="M139.87 313.81a18.93 18.93 0 00-6 10.25c-1.12 6.23-16.93 48.09-16.93 48.09s11.58 8 16.48 8a19.23 19.23 0 007.35-1.12l8.9-64.12s-4.46-5.33-9.8-1.1z" fill="#737373" stroke-miterlimit="10"/>
        <path d="M134.52 366.81a137.27 137.27 0 00-1.11 22.26c.45 11.58 7.57 31.84 7.57 34.74s-2.45 15.81-.89 22.49 6.46 24 6.46 27.83-1.56 13.81-.23 14 9.8 0 9.8 0 1.78.44 1.56-3.12c-.11-1.78-1.56-4.68-1.56-5.34s-2-8.24-2-8.91 1.33-27.16 2-37.85 2.23-36.74 2.23-36.74l1.78.22v33c0 11.8-.45 26.71.44 33.17s.67 25.61.67 25.61h18.26s1.34-.89-.67-3.79-4.67-3.78-6.23-5.12-2.9-8.24-2.9-8.24 6-20.48 6.46-27.16 1.11-23.6 1.11-24.72 8-17.14 8-27.61a169.92 169.92 0 00-2.23-23.6z" fill="#fff" stroke-linecap="round" stroke-linejoin="round"/>
        <path d="M134.52 366.81a137.27 137.27 0 00-1.11 22.26 76.53 76.53 0 002.13 13.37c3 1.23 12.24 4.37 22.36 1.17.27-4.39.45-7.41.45-7.41l1.78.22v7.39c3.53 1.19 13.55 3.78 23.09-.76a42.61 42.61 0 002.07-11.53 169.92 169.92 0 00-2.23-23.6z" fill="#92e3a9" stroke-linecap="round" stroke-linejoin="round"/>
        <path d="M157.9 403.61c0-.65.08-1.27.11-1.85a36.43 36.43 0 01-22.84-1c.12.54.24 1.09.37 1.64 2.99 1.27 12.24 4.41 22.36 1.21zM183.9 400.62a36.19 36.19 0 01-23.77 1.38v1.83c3.53 1.19 13.55 3.78 23.09-.76.24-.83.47-1.64.68-2.45z" fill="#92e3a9" stroke-linecap="round" stroke-linejoin="round"/>
        <path fill="none" stroke-linecap="round" stroke-linejoin="round" d="M152.34 395.75l13.8.89"/>
        <path d="M162.58 304.68s-10.47-1.11-18.26 5.35c0 0-4.45 2.67-4.45 3.78s-4 38.75-5.35 44.31-2 10-2 10 16.92 5.57 27.16 5.35 28.73-3.34 28.73-3.34 0-43.2-1.12-50.1-.89-8.46-5.34-11.58c-1.17-.8-12.25-3.77-19.37-3.77z" fill="#737373" stroke-miterlimit="10"/>
        <path fill="#263238" stroke-linecap="round" stroke-linejoin="round" d="M134.97 356.56l38.74-50.76 4.45 1.11-44.53 55.67 1.34-6.02zM156.12 488.16s1.78.44 1.56-3.12c-.11-1.78-1.56-4.68-1.56-5.34s-1.59-6.69-1.94-8.46h-8a18.59 18.59 0 01.37 2.89c0 3.79-1.56 13.81-.23 14s9.8.03 9.8.03zM179.5 488.16s1.34-.89-.67-3.79-4.67-3.78-6.23-5.12-2.9-8.24-2.9-8.24l-8.58.15c.23 7.79.12 17 .12 17z"/>
        <path d="M211.12 359.54l9.12 3.37a44.53 44.53 0 018.82-2.43c.93-.09 5.37 2.56 5.37 2.56s-3.32 1-5.24 1.67c-1.16.38-4.51 3.06-6.26 3.34s-4.35-1.08-4.35-1.08l-8.8.83z" fill="#fff" stroke-linecap="round" stroke-linejoin="round"/>
        <path d="M180.07 308.8s6.77-.5 9.56 3.82 14.2 39.73 14.2 39.73l13.22 8-2.49 17.65s-17.65-6.34-23.1-10.53-8.16-46.11-8.16-46.11" fill="#737373" stroke-miterlimit="10"/>
    </g>
    <g>
        <path d="M84.55 274.82l1.26 5s2.88 1.62 1.8 3.24-2.16 1.62-2.16 1.62.72 8.09-.54 10.25-6.11 2.34-6.11 2.34l-1.44 6.84-14.94-5.4v-5.58a24.48 24.48 0 01-1.42-8.77c.18-4.68 7.56-9.54 12.42-10.62s11.13 1.08 11.13 1.08z" fill="#fff" stroke="#263238" stroke-linecap="round" stroke-linejoin="round"/>
        <path d="M73.4 287.78S82 279 85.81 274.64s2.7-9.36.36-14-17.45-4.86-26.27-2S46 268.34 46.76 275s13.14 15.3 14.58 17.81 4.32 3.24 7 1.62 2-5.39 2.34-6.47 2.72-.18 2.72-.18z" fill="#92e3a9" stroke="#263238" stroke-linecap="round" stroke-linejoin="round"/>
        <path d="M83.38 268.39a14.19 14.19 0 01-6.78 7.69c-7.81 3.9-14.42 5.4-15.32 10.51M84.72 262.56a14.29 14.29 0 01-.17 1.56M58.57 280.09a14.9 14.9 0 013.61-3.09c6-3.91 9-3 12.32-6M57.38 283.89a2.68 2.68 0 010-1.44M77.51 280.28s-9.55 5.13-12.32 9" fill="none" stroke="#263238" stroke-linecap="round" stroke-miterlimit="10"/>
        <path d="M74.3 288.14s-2.16-4.68-4.5-4-1.26 7.38 1.44 8.45 4.5-2.15 4.5-2.15M36 370s0 9.9-.72 14-1.44 10.61 1.26 13.85c1.55 1.86 2.52 2.16 2.88.9s.72-3.6.72-3.6.72 2.16 1.08 0-.36-4.67-.9-6.83-1.32-4.8-1.32-4.8l3.6-12.24z" fill="#fff" stroke="#263238" stroke-linecap="round" stroke-linejoin="round"/>
        <path d="M53.06 307s-3.6 1.8-5.94 7.92S32 368.4 32.18 368.94a12 12 0 006.84 4 21.63 21.63 0 005.4 0S54.5 315 55.4 311.35s-.9-5.58-2.34-4.35z" fill="#fff"/>
        <path d="M41.86 332.63c.13-.45.25-.89.38-1.33h.06a22.21 22.21 0 0010.06-10l.11-.17 1.33-1.28c-.1.54-.21 1.1-.31 1.68l-.24.24a23 23 0 01-10.49 10.45zm3.25 7.17c-.43.65-.81 1.22-1.1 1.58a21.87 21.87 0 01-5.78 4.41l-.35 1.28a4 4 0 01.47-.23 22.46 22.46 0 006.44-4.84c.32-.39.71-1 1.16-1.64a25.52 25.52 0 015.27-6.22c.09-.47.17-.93.25-1.39l-.16.1c-2.69 1.71-4.8 4.86-6.2 6.95zm-2.73 26.08c.59-.2 1.55-.44 2.67-.71l.75-.18c.06-.35.12-.71.19-1.08l-1.18.29c-1.14.28-2.12.52-2.75.73-2 .65-6.25 4.55-6.45 4.74l-1.24 1.25c.27.19.56.38.86.56l1.07-1.09c1.2-1.09 4.62-4.03 6.08-4.51zm-.42-7c2.17-2.37 3.54-3.92 4.54-5.06.64-.73 1.12-1.27 1.56-1.74l.3-1.72a36.35 36.35 0 00-2.61 2.8c-1 1.13-2.36 2.69-4.53 5a32.87 32.87 0 01-7.95 6.17l-.33 1.31a34.64 34.64 0 009.06-6.76zm13.44-47.69a22.19 22.19 0 00-6.81.68 18.71 18.71 0 00-.87 1.68c1.49-1.08 4.17-1.22 7.47-1.23.09-.45.16-.78.21-1a1 1 0 010-.17zm-9 5.87c-.76 2.35-1.84 6.05-3.08 10.4 2.43-2.74 3.02-7.21 3.09-10.4z" fill="#92e3a9"/>
        <path d="M32.93 366.11s5.73 4.09 11.85 3.19M53.06 307s-3.6 1.8-5.94 7.92S32 368.4 32.18 368.94a12 12 0 006.84 4 21.63 21.63 0 005.4 0S54.5 315 55.4 311.35s-.9-5.58-2.34-4.35z" fill="none" stroke="#263238" stroke-linecap="round" stroke-linejoin="round"/>
        <path d="M64.76 478.36s12.6 6.12 14.39 6.84 1.08 3.06 1.08 3.06H55.58s-1.08-.9-.18-4.32 9.36-5.58 9.36-5.58z" fill="#fff" stroke="#263238" stroke-linecap="round" stroke-linejoin="round"/>
        <path d="M55.58 488.26h24.65a3.74 3.74 0 00.12-1.44H55.06a2.16 2.16 0 00.52 1.44z" fill="#fff" stroke="#263238" stroke-linecap="round" stroke-linejoin="round"/>
        <path d="M45.14 397.37s5.4 35.46 5.94 41.4 3.78 40.49 4 43.55 2.7 4 4.5 4 7.56-4 7.92-9.9 3.6-75.95 3.6-75.95-19.3 5.53-25.96-3.1z" fill="#263238" stroke="#263238" stroke-linecap="round" stroke-linejoin="round"/>
        <path d="M76.64 478.36s12.59 6.12 14.36 6.84 1.08 3.06 1.08 3.06H67.46s-1.08-.9-.18-4.32 9.36-5.58 9.36-5.58z" fill="#fff" stroke="#263238" stroke-linecap="round" stroke-linejoin="round"/>
        <path d="M67.46 488.26h24.65a4 4 0 00.12-1.44H66.94a2.16 2.16 0 00.52 1.44z" fill="#fff" stroke="#263238" stroke-linecap="round" stroke-linejoin="round"/>
        <path d="M63.32 403.49s1.62 51.29 1.62 59.21 1.08 23.94 2.52 23.94 9.36-6.48 9.72-8.82a40.84 40.84 0 00.36-5.22s7.19-51.83 8.63-60.47 1.8-15.3 1.8-15.3-14.21-3.59-24.65 6.66z" fill="#263238" stroke="#263238" stroke-linecap="round" stroke-linejoin="round"/>
        <path d="M52.7 306.13a353.3 353.3 0 00-11 45.17c-1.88 11.68-3.06 44.81-3.06 44.81s14.22 11.52 21.78 11.34 16-6.3 19.61-7.74 10.08-1.08 10.08-1.08-1.26-29.51-1.44-40.85-3.78-38.87-5.58-43.91-11-7.92-17.63-9.54-11.14-.9-12.76 1.8z" fill="#fff"/>
        <path d="M47 377.12c.22-.05 5.54-1.37 10.28-8 3.44-4.82 4.32-5.54 5.93-6.85.57-.47 1.22-1 2.11-1.8a5.4 5.4 0 012.37-1.58c.73-.22 1.36-.41 3.89-3.13 2.2-2.35 2.84-3.15 3.46-3.93s1.24-1.54 3.41-3.87a10.8 10.8 0 001.93-2.34h.06c.4-.32 1.41-1.13 3.89-3.19l3-2.46c-.05-.4-.09-.79-.14-1.19l-3.45 2.88c-2.47 2.05-3.47 2.86-3.87 3.17s-.44.35-.45.59a20.62 20.62 0 01-1.65 1.9c-2.2 2.35-2.84 3.15-3.46 3.93s-1.24 1.54-3.41 3.87c-2.35 2.52-2.88 2.68-3.45 2.85a6.33 6.33 0 00-2.76 1.8c-.86.78-1.5 1.31-2.07 1.77-1.66 1.36-2.58 2.11-6.11 7-4.5 6.3-9.64 7.59-9.73 7.62l-7.28 2.42-.06 1.08zM79.55 315.89c-.18.32-.36.64-1.76 1.69l-1.35 1a6.44 6.44 0 00-1.78 1.57c-.23.29-.58.73-1.31 1.55l-.42.47A57.39 57.39 0 0068 328.3a11.35 11.35 0 01-2.1 2.35 29.3 29.3 0 00-4.45 5.13c-2.73 3.63-2.9 4.3-2.17 5 .14.13.3.29-.08 1.35a3.66 3.66 0 01-2.62 2.64 21.93 21.93 0 00-4.7 2.74 28.56 28.56 0 00-6.15 5.63c-1 1.13-2.36 2.69-4.53 5-.11.13-.25.25-.37.37-.05.52-.09 1-.14 1.57.43-.41.85-.83 1.25-1.26 2.17-2.37 3.54-3.92 4.54-5.06a27.89 27.89 0 016-5.49 20.09 20.09 0 014.52-2.56 4.62 4.62 0 003.15-3.22c.5-1.39.31-1.95-.16-2.41l-.06-.05c0-.22.36-1 2.33-3.65a27.15 27.15 0 014.31-5 12.76 12.76 0 002.25-2.53 55.49 55.49 0 014.85-6l.42-.47c.74-.84 1.1-1.29 1.34-1.59a6.34 6.34 0 011.6-1.39l1.35-1c1.58-1.18 1.81-1.6 2-2s.42-.75 2.75-2.34l-.06-.16a5.89 5.89 0 00-.35-.77c-2.64 1.79-2.89 2.24-3.17 2.76zM73 338.32a40.15 40.15 0 00-2 4.19 20.89 20.89 0 01-3.5 6 55.76 55.76 0 01-8 7.42c-.88.63-2 1.54-3.16 2.5a45.47 45.47 0 01-4.91 3.71 31.1 31.1 0 01-6.52 2c-1.14.28-2.12.52-2.75.73a8.18 8.18 0 00-1.81 1c0 .43-.07.86-.1 1.29a10.15 10.15 0 012.23-1.33c.59-.2 1.55-.44 2.67-.71a31.25 31.25 0 006.67-2.12 44.77 44.77 0 005-3.81c1.16-1 2.26-1.85 3.11-2.46a56.22 56.22 0 008.19-7.56 21.76 21.76 0 003.68-6.29 39 39 0 012-4.08c2.22-3.8 5.38-6.79 11.88-11.18-.06-.37-.11-.74-.16-1.1-6.79 4.61-10.22 7.83-12.52 11.8zM53.25 321.7c.47-.47 3.35-3.29 6.44-5.82 2.19-1.8 2.42-2.13 3-3 .37-.53.87-1.26 2-2.66 2.91-3.49 4.16-4.21 4.14-4.21l1.25-.38-1.71-.5c-.33.2-1.66 1.1-4.45 4.45a32 32 0 00-2.08 2.74 10.89 10.89 0 01-2.84 2.81c-3.41 2.79-6.56 5.93-6.59 6l-.11.17a20.76 20.76 0 01-5.91 7.31l-.39 1.56a21.91 21.91 0 007.25-8.47zM89.89 392.76v-1.17a31.58 31.58 0 01-3.48 2.09 64.45 64.45 0 00-7 4.38 37.74 37.74 0 00-7.11 5.7l-.06.06c1.23-.62 2.39-1.25 3.46-1.83 1-.79 2.3-1.77 4.27-3.11a61.62 61.62 0 016.9-4.31 33.84 33.84 0 003.02-1.81zM45.28 397.2a38.78 38.78 0 017.5-6.11 15.49 15.49 0 002.75-2.09 1.55 1.55 0 00.33-.52c.69-.15 2.58-.59 7.4-2 3.93-1.16 6.56-1.86 8.48-2.36 4.79-1.27 5-1.32 8.84-4.27 2.42-1.85 3-1.85 3.49-1.85.76 0 1.44-.12 4-2.55l1.08-1c0-.45 0-.89-.05-1.34-.52.51-1.08 1-1.71 1.63C85 377 84.54 377 84.08 377c-.77 0-1.61.14-4.11 2.05-3.7 2.84-3.79 2.86-8.49 4.1-1.92.51-4.56 1.21-8.5 2.37-5 1.48-6.82 1.88-7.42 2-.35.08-.56.12-.67.39l-.08.28v.06a12.23 12.23 0 01-2.61 2 39.94 39.94 0 00-7.68 6.25 26 26 0 01-2.41 2.25l.85.6c.9-.72 1.6-1.42 2.32-2.15zM75.78 391.12a48.69 48.69 0 00-6.85 2.95 39.63 39.63 0 01-6.23 2.66c-2.86.64-11 5.78-11.39 6l-.19.13v.21a2.86 2.86 0 01-.55 1.05l.89.47a4.19 4.19 0 00.59-1.11c1.18-.74 8.42-5.21 10.9-5.76a39.43 39.43 0 006.42-2.72 47.58 47.58 0 016.63-2.91 140.33 140.33 0 0013.6-5.64v-1.09c-5.66 2.64-11.89 5.23-13.82 5.76zM77.2 310.08a49 49 0 01-5 2.76c-3 1.51-5.67 2.82-7.59 5.81a26.29 26.29 0 00-2.55 5.6c-.81 2.25-1.44 4-2.89 4.84a22.89 22.89 0 01-3.08 1.4 24.7 24.7 0 00-4.74 2.36c-2.69 1.71-4.8 4.86-6.2 6.95-.43.65-.81 1.22-1.1 1.58a8.37 8.37 0 01-.6.65c-.11.55-.21 1.09-.32 1.64a13.54 13.54 0 001.7-1.67c.32-.39.71-1 1.16-1.64 1.35-2 3.39-5.07 5.89-6.67a23.79 23.79 0 014.58-2.27 24.27 24.27 0 003.2-1.46c1.77-1 2.5-3 3.34-5.38a25.38 25.38 0 012.45-5.39c1.77-2.76 4.17-3.95 7.2-5.45a53 53 0 005.13-2.82 13.81 13.81 0 001.68-1.26c-.28-.19-.57-.38-.88-.57a13 13 0 01-1.38.99zM48.94 384.59a51 51 0 005-2.32A55.82 55.82 0 0161.4 379c3.57-1.19 6.15-5.93 7.86-9.06a14.49 14.49 0 011.39-2.29c1-1 7.91-5 10.55-6.51.06 0 3.69-2.74 7.42-5.68 0-.39 0-.8-.06-1.22-3.9 3.09-7.88 6-7.91 6.07-.38.21-9.43 5.35-10.71 6.63a13.63 13.63 0 00-1.55 2.52c-1.54 2.81-4.11 7.52-7.3 8.59a56.92 56.92 0 00-7.56 3.35 52 52 0 01-4.93 2.27 30.25 30.25 0 00-5.38 2.73 15.22 15.22 0 01-1.81 1 6.58 6.58 0 00-2.48 2.1c0 .61 0 1.17-.07 1.71 1.16-1.52 2-2.54 2.92-2.88a15.9 15.9 0 002-1.09 28.13 28.13 0 015.16-2.65zM62.29 303.72c-1 2.24-3.72 7.47-6.89 7.47a41.1 41.1 0 00-4.29.15c-.12.38-.23.78-.35 1.19a36.05 36.05 0 014.64-.21c4 0 7.05-6.2 8-8.42z" fill="#92e3a9"/>
        <path d="M52.7 306.13a353.3 353.3 0 00-11 45.17c-1.88 11.68-3.06 44.81-3.06 44.81s14.22 11.52 21.78 11.34 16-6.3 19.61-7.74 10.08-1.08 10.08-1.08-1.26-29.51-1.44-40.85-3.78-38.87-5.58-43.91-11-7.92-17.63-9.54-11.14-.9-12.76 1.8z" fill="none" stroke="#263238" stroke-miterlimit="10"/>
        <path fill="#263238" d="M75.16 332.83l-1.09 47.62 11.7 1.91 3 6.8v-11.7l-13.61-44.63"/>
        <path d="M80.59 304.87a64.94 64.94 0 00-11.51-6.3c-5.58-2.16-12.24-3.6-13.86-1.26s-4.5 7.92-3.6 9.36 20.16 5.58 24.3 6.12 7.01-2.88 4.67-7.92z" fill="#92e3a9" stroke="#263238" stroke-linecap="round" stroke-linejoin="round"/>
        <path d="M80.59 304.87s-9.17-2.34-13.49 0-4.32 9.36-6.12 17.28-7.2 38.15-6.3 38.51 11.16 4.68 12.42 1.44 4.44-41.08 5.22-44.45c1.08-4.65 5.4-4.65 7.37-4.65s4.68 5 5 2.52.04-8.67-4.1-10.65z" fill="#92e3a9" stroke="#263238" stroke-linecap="round" stroke-linejoin="round"/>
        <path d="M91.39 377.22s1.26 8.64 1.8 11 2 9.17.54 13.49-4 6.3-4.14 5.58a3.34 3.34 0 01.36-1.8s.72-4-.54-6.84-1.44-5.57-.9-6.83 1.8-3.78 1.8-3.78l-5.94-10.26z" fill="#fff" stroke="#263238" stroke-linecap="round" stroke-linejoin="round"/>
        <path d="M74.48 323.77l2 54.71s8.45.54 12.41.36 9.54-2.7 9.54-2.7-11.7-55.43-13.5-59.39-7.19-3.78-9.71-.54" fill="#fff"/>
        <path d="M96.47 367c-2.26 1.21-3.84 2.72-6.63 5.38-.71.69-1.51 1.44-2.42 2.3C85 377 84.54 377 84.08 377c-.72 0-1.52.14-3.64 1.7l1.64.07c1.21-.78 1.63-.78 2-.77.76 0 1.44-.12 4-2.55.92-.86 1.71-1.62 2.43-2.3 2.69-2.57 4.16-4 6.16-5.08-.05-.35-.12-.69-.2-1.07zM74.9 335.53l.06 1.58c2.26-3.18 5.55-6 11.52-10l1-.67c-.08-.35-.17-.7-.25-1l-1.31.88c-5.38 3.57-8.7 6.32-11.02 9.21zM79.55 315.89c-.18.32-.36.64-1.76 1.69l-1.35 1a7.9 7.9 0 00-1.6 1.34l-.17 1.78c.37-.43.61-.72.77-.93a6.34 6.34 0 011.6-1.39l1.35-1c1.58-1.18 1.81-1.6 2-2s.39-.7 2.25-2a5.08 5.08 0 00-1.12-.43c-1.52 1.13-1.74 1.52-1.97 1.94zM83.7 341.62c-2.47 2.05-3.47 2.86-3.87 3.17s-.44.35-.45.59a20.62 20.62 0 01-1.65 1.9c-1.09 1.17-1.8 2-2.31 2.54v1.49c.54-.66 1.29-1.53 3-3.35a10.8 10.8 0 001.93-2.34h.06c.4-.32 1.41-1.13 3.89-3.19 2.76-2.3 4.5-3.75 5.71-4.78-.08-.37-.17-.74-.25-1.1-1.17 1-2.98 2.5-6.06 5.07zM93.17 351.75l-.24-1.11c-4.46 3.84-12.24 9.61-12.28 9.65s-2.38 1.35-4.75 2.76v1.14c2-1.2 4.07-2.39 5.26-3.07.12-.06 7.46-5.51 12.01-9.37z" fill="#92e3a9"/>
        <path d="M76.46 372.54s11.87 2.7 20.69-2" fill="none" stroke="#263238" stroke-linecap="round" stroke-linejoin="round"/>
        <path d="M74.48 323.77l2 54.71s8.45.54 12.41.36 9.54-2.7 9.54-2.7-11.7-55.43-13.5-59.39-7.19-3.78-9.71-.54" fill="none" stroke="#263238" stroke-miterlimit="10"/>
    </g>
    <g>
        <path fill="none" stroke="#263238" stroke-linecap="round" stroke-linejoin="round" d="M20.9 488.26h467.52"/>
    </g>
</svg>
